<svg width="120" height="120" viewBox="0 0 120 120" fill="none" xmlns="http://www.w3.org/2000/svg">
<g id="bi:quote">
<path id="Vector" d="M30 30C28.0108 30 26.1032 30.7902 24.6967 32.1967C23.2902 33.6032 22.5 35.5109 22.5 37.5V55.815C22.5 57.8041 23.2902 59.7118 24.6967 61.1183C26.1032 62.5248 28.0108 63.315 30 63.315H40.41C40.41 65.9475 40.2525 68.5875 39.945 71.22C39.48 74.01 38.7 76.4925 37.62 78.66C36.5325 80.835 35.1375 82.5375 33.4275 83.7825C31.725 85.1775 29.5575 85.875 26.9175 85.875V97.5C31.26 97.5 35.055 96.57 38.3175 94.71C41.5516 92.8689 44.3322 90.3266 46.455 87.27C48.5855 83.9001 50.1559 80.2073 51.105 76.335C52.0613 72.0618 52.5293 67.6938 52.5 63.315V37.5C52.5 35.5109 51.7098 33.6032 50.3033 32.1967C48.8968 30.7902 46.9891 30 45 30H30ZM75 30C73.0109 30 71.1032 30.7902 69.6967 32.1967C68.2902 33.6032 67.5 35.5109 67.5 37.5V55.815C67.5 57.8041 68.2902 59.7118 69.6967 61.1183C71.1032 62.5248 73.0109 63.315 75 63.315H85.41C85.41 65.9475 85.2525 68.5875 84.945 71.22C84.48 74.01 83.7 76.4925 82.62 78.66C81.5325 80.835 80.1375 82.5375 78.4275 83.7825C76.725 85.1775 74.5575 85.875 71.9175 85.875V97.5C76.26 97.5 80.055 96.57 83.3175 94.71C86.5516 92.8689 89.3322 90.3266 91.455 87.27C93.5855 83.9001 95.1559 80.2073 96.105 76.335C97.0613 72.0618 97.5293 67.6938 97.5 63.315V37.5C97.5 35.5109 96.7098 33.6032 95.3033 32.1967C93.8968 30.7902 91.9891 30 90 30H75Z" fill="#C99D43"/>
</g>
</svg>
