<svg width="40" height="40" viewBox="0 0 40 40" fill="none" xmlns="http://www.w3.org/2000/svg">
<g id="fluent:call-16-filled">
<path id="Vector" d="M16.89 17.56L19.575 15.1C20.3092 14.426 20.8252 13.548 21.0568 12.5787C21.2885 11.6094 21.2251 10.593 20.875 9.65996L19.73 6.60246C19.3022 5.46101 18.4554 4.52558 17.3619 3.98677C16.2685 3.44795 15.0108 3.34628 13.845 3.70246C9.55501 5.01496 6.25751 9.00246 7.27251 13.7375C7.94001 16.8525 9.21751 20.7625 11.6375 24.9225C14.0625 29.0925 16.8325 32.1725 19.2075 34.3375C22.7925 37.6 27.9175 36.785 31.215 33.71C32.0989 32.8858 32.6353 31.7556 32.7147 30.5497C32.7941 29.3438 32.4107 28.1529 31.6425 27.22L29.5425 24.67C28.9091 23.8988 28.0595 23.3349 27.103 23.0506C26.1464 22.7664 25.1267 22.7748 24.175 23.075L20.705 24.1675C19.8089 23.2427 19.0236 22.2166 18.365 21.11C17.7293 19.9909 17.2339 18.7977 16.89 17.5575V17.56Z" fill="#C99D43"/>
</g>
</svg>
