<svg xmlns="http://www.w3.org/2000/svg" width="50" height="50" viewBox="0 0 50 50" fill="none">
  <g clip-path="url(#clip0_1_108)">
    <path fill-rule="evenodd" clip-rule="evenodd" d="M32.7229 26.4729C33.1135 26.0822 33.3329 25.5524 33.3329 24.9999C33.3329 24.4475 33.1135 23.9177 32.7229 23.527L20.9375 11.7416C20.7453 11.5426 20.5154 11.3839 20.2613 11.2747C20.0071 11.1655 19.7337 11.1081 19.4571 11.1057C19.1805 11.1033 18.9061 11.156 18.6501 11.2607C18.3941 11.3655 18.1615 11.5202 17.9658 11.7158C17.7702 11.9114 17.6155 12.144 17.5108 12.4C17.406 12.6561 17.3533 12.9304 17.3557 13.207C17.3581 13.4837 17.4156 13.757 17.5248 14.0112C17.634 14.2654 17.7927 14.4953 17.9917 14.6874L28.3042 24.9999L17.9917 35.3124C17.6122 35.7054 17.4022 36.2316 17.4069 36.7779C17.4117 37.3241 17.6308 37.8466 18.017 38.2329C18.4033 38.6192 18.9258 38.8383 19.4721 38.843C20.0183 38.8478 20.5446 38.6378 20.9375 38.2583L32.7229 26.4729Z" fill="#C99D43"/>
  </g>
  <defs>
    <clipPath id="clip0_1_108">
      <rect width="50" height="50" fill="white" transform="matrix(-1 0 0 1 50 0)"/>
    </clipPath>
  </defs>
</svg>