<svg xmlns="http://www.w3.org/2000/svg" width="50" height="50" viewBox="0 0 50 50" fill="none">
  <g clip-path="url(#clip0_1_104)">
    <path fill-rule="evenodd" clip-rule="evenodd" d="M17.2771 26.4729C16.8865 26.0822 16.6671 25.5524 16.6671 24.9999C16.6671 24.4475 16.8865 23.9177 17.2771 23.527L29.0625 11.7416C29.2547 11.5426 29.4846 11.3839 29.7387 11.2747C29.9929 11.1655 30.2663 11.1081 30.5429 11.1057C30.8195 11.1033 31.0939 11.156 31.3499 11.2607C31.6059 11.3655 31.8385 11.5202 32.0342 11.7158C32.2298 11.9114 32.3845 12.144 32.4892 12.4C32.594 12.6561 32.6467 12.9304 32.6443 13.207C32.6419 13.4837 32.5844 13.757 32.4752 14.0112C32.366 14.2654 32.2073 14.4953 32.0083 14.6874L21.6958 24.9999L32.0083 35.3124C32.3878 35.7054 32.5978 36.2316 32.5931 36.7779C32.5883 37.3241 32.3692 37.8466 31.983 38.2329C31.5967 38.6192 31.0742 38.8383 30.5279 38.843C29.9817 38.8478 29.4554 38.6378 29.0625 38.2583L17.2771 26.4729Z" fill="#C99D43"/>
  </g>
  <defs>
    <clipPath id="clip0_1_104">
      <rect width="50" height="50" fill="white"/>
    </clipPath>
  </defs>
</svg>